<svg width="544" height="575" viewBox="0 0 544 575" fill="none" xmlns="http://www.w3.org/2000/svg">
<path d="M179 574.294C133.339 574.294 88.1773 574.223 43.0162 574.33C26.0569 574.37 13.279 567.237 5.69052 552.202C-1.95989 537.045 -0.384769 522.054 9.68469 508.396C33.0178 476.747 56.5362 445.234 80.0604 413.727C115.345 366.468 150.734 319.288 186.003 272.018C197.501 256.608 203.394 239.47 203.209 219.935C202.878 185.127 203.325 150.311 203.554 115.498C203.581 111.381 201.98 109.796 197.919 109.936C193.109 110.101 188.302 110.277 183.53 108.928C169.511 104.961 160.339 94.0075 160.027 79.5366C159.684 63.5459 159.621 47.5354 159.995 31.5466C160.399 14.258 173.997 0.937523 191.266 0.895241C245.426 0.762635 299.586 0.787087 353.746 0.9245C370.777 0.96772 384.454 14.1276 384.919 31.1275C385.356 47.1133 385.363 63.1303 384.916 79.1156C384.409 97.2337 371.088 109.717 352.884 109.964C341.306 110.121 341.313 110.121 341.315 121.755C341.32 149.891 341.067 178.03 341.433 206.162C341.592 218.397 340.934 230.787 344.328 242.806C347.494 254.018 352.867 264.071 359.973 273.283C362.256 276.242 364.079 274.923 366.284 273.457C384.294 261.483 404.135 255.732 425.752 256.084C465.501 256.729 503.933 283.714 517.017 321.238C531.222 361.975 523.072 398.241 493.189 429.483C491.7 431.039 489.919 432.315 488.286 433.735C486.677 435.134 485.083 436.551 483.701 437.768C483.852 440.081 485.173 441.211 486.15 442.524C502.469 464.441 518.87 486.298 535.098 508.282C553.636 533.396 541.143 566.98 510.912 573.673C507.934 574.333 504.949 574.241 501.959 574.242C394.473 574.269 286.987 574.28 179 574.294ZM232.5 552.79C282.327 552.799 332.153 552.803 381.979 552.82C421.807 552.833 461.636 552.883 501.464 552.872C512.647 552.869 518.948 548.218 521.896 538.151C523.879 531.379 521.424 525.665 517.575 520.411C509.797 509.792 501.848 499.299 493.982 488.745C485.121 476.854 476.295 464.938 467.398 453.074C465.971 451.173 464.838 448.739 461.448 450.18C449.59 455.22 437.095 457.554 423.564 458.149C425.589 460.921 427.229 463.176 428.879 465.424C436.963 476.438 445.175 487.361 453.088 498.496C457.601 504.844 455.944 511.889 449.686 514.939C447.217 516.143 444.569 516.26 441.878 516.261C328.893 516.287 215.907 516.323 102.922 516.379C97.6237 516.382 93.0752 515.252 90.3152 510.083C87.5294 504.866 89.9006 500.842 92.8743 496.805C118.467 462.06 144.24 427.446 169.499 392.462C176.658 382.546 185.339 378.429 197.445 378.549C237.603 378.944 277.767 378.673 317.928 378.805C322.471 378.82 323.934 377.876 323.165 372.849C318.758 344.035 325.728 318.001 343.497 294.942C345.979 291.722 345.421 289.535 343.2 286.641C330.688 270.334 322.261 252.302 320.609 231.527C320.312 227.795 318.848 225.947 314.656 226.076C305.666 226.354 296.657 226.3 287.663 226.081C281.269 225.926 276.512 221.324 276.251 215.632C276.001 210.146 280.054 205.581 286.309 204.472C288.099 204.154 289.949 204.072 291.773 204.062C299.271 204.02 306.775 203.891 314.268 204.113C318.299 204.233 319.97 202.954 319.849 198.709C319.606 190.217 319.633 181.709 319.859 173.216C319.965 169.256 318.491 167.93 314.624 168.022C306.297 168.22 297.961 168.122 289.629 168.083C285.714 168.065 281.904 167.476 279.17 164.293C276.353 161.013 275.361 157.22 277.184 153.145C279.315 148.382 283.369 146.203 288.382 146.107C297.211 145.939 306.048 145.936 314.877 146.095C318.557 146.161 319.909 144.775 319.837 141.112C319.674 132.783 319.551 124.438 319.893 116.12C320.094 111.249 318.349 109.835 313.598 109.868C286.269 110.057 258.938 110.088 231.61 109.887C226.555 109.85 225.091 111.391 225.122 116.441C225.331 151.269 225.26 186.098 225.242 220.927C225.23 244.023 218.162 264.853 204.435 283.316C154.736 350.166 104.925 416.933 55.1476 483.725C46.0886 495.88 36.9065 507.944 27.9437 520.17C24.3642 525.052 21.3319 530.407 23.1079 536.807C26.3769 548.586 32.0646 552.769 44.5242 552.774C106.85 552.8 169.175 552.788 232.5 552.79ZM225.5 400.216C216.173 400.225 206.833 400.527 197.523 400.128C192.346 399.907 189.291 401.939 186.423 406C177.973 417.965 169.15 429.666 160.481 441.477C149.351 456.641 138.204 471.793 127.138 487.003C125.833 488.796 123.45 490.708 124.844 493.138C126.175 495.457 129.048 494.636 131.314 494.66C138.475 494.735 145.638 494.703 152.8 494.706C239.912 494.736 327.023 494.771 414.135 494.766C416.536 494.766 419.18 495.432 421.343 493.133C421.227 490.547 419.532 488.653 418.084 486.674C411.495 477.669 404.728 468.791 398.335 459.65C395.538 455.65 392.2 453.053 387.594 451.318C364.248 442.522 346.362 427.216 334.479 405.214C332.464 401.484 330.179 400.098 325.937 400.119C292.792 400.287 259.646 400.215 225.5 400.216ZM417.033 436.361C423.562 437.337 430.084 436.534 436.431 435.391C478.771 427.769 506.592 388.347 501.9 348.341C496.741 304.366 456.907 272.8 412.992 278.341C368.214 283.992 336.293 325.646 344.775 371.589C351.15 406.114 378.557 432.572 417.033 436.361ZM251.5 88.065C284.475 88.2166 317.449 88.3581 350.424 88.5259C359.883 88.5741 363.572 85.0945 363.569 75.7331C363.563 61.5782 363.449 47.4234 363.376 33.2686C363.341 26.6205 360.026 23.1546 353.195 23.1497C299.391 23.1117 245.586 23.1244 191.781 23.1772C184.97 23.1839 182.037 26.1525 182.004 32.9599C181.931 47.9513 181.931 62.9436 182.012 77.935C182.05 84.9339 185.929 88.5162 193.046 88.4666C212.198 88.3331 231.349 88.2004 251.5 88.065Z" fill="#35431D"/>
<path d="M377.401 396.467C375.515 391.026 377.463 387.033 381.004 383.501C388.319 376.205 395.63 368.906 402.933 361.598C407.517 357.01 407.511 357 402.774 352.261C395.234 344.719 387.648 337.223 380.17 329.621C377.045 326.444 375.683 322.653 377.195 318.187C378.557 314.162 381.457 311.845 385.517 311.116C389.603 310.381 392.953 311.948 395.843 314.872C402.989 322.1 410.207 329.258 417.413 336.427C422.798 341.785 422.796 341.761 428.317 336.252C435.63 328.956 442.881 321.595 450.321 314.43C455.09 309.837 461.863 309.89 466.014 314.201C470.186 318.533 470.044 324.515 465.588 329.45C463.691 331.551 461.722 333.59 459.73 335.603C453.987 341.403 448.397 347.374 442.388 352.887C438.693 356.275 439.217 358.487 442.608 361.695C450.11 368.791 457.271 376.248 464.535 383.594C469.916 389.037 470.418 395.336 465.915 399.927C461.265 404.67 454.832 404.209 449.168 398.607C441.823 391.341 434.366 384.174 427.323 376.624C423.934 372.99 421.601 373.379 418.427 376.667C411.139 384.217 403.683 391.607 396.183 398.947C389.494 405.493 382.599 404.637 377.401 396.467Z" fill="#5B1616"/>
</svg>
